<?xml version="1.0" encoding="UTF-8"?>
<svg id="Layer_1" data-name="Layer 1" xmlns="http://www.w3.org/2000/svg" xmlns:xlink="http://www.w3.org/1999/xlink" viewBox="0 0 944.37 383.97">
  <defs>
    <style>
      .cls-1 {
        fill: url(#linear-gradient);
      }

      .cls-2 {
        fill: #fff;
      }
    </style>
    <linearGradient id="linear-gradient" x1="-680.48" y1="-1666" x2="-262.67" y2="-1666" gradientTransform="translate(-594.81 1645.69) rotate(45)" gradientUnits="userSpaceOnUse">
      <stop offset=".09" stop-color="#00aab3"/>
      <stop offset=".86" stop-color="#006aff"/>
    </linearGradient>
  </defs>
  <g id="AFP_logo" data-name="AFP logo">
    <g id="Logo_mark" data-name="Logo mark">
      <path class="cls-1" d="M192.56,227.63c-1.32-1.32-3.43-1.28-4.75.03-1.31,1.31-1.34,3.44,0,4.78s3.44,1.28,4.75-.03c1.31-1.31,1.34-3.44,0-4.78ZM234.56,259.97c-4.23-4.16-11.01-4.19-15.2,0-4.2,4.2-4.19,11,0,15.2,4.19,4.19,11.01,4.2,15.2,0,4.15-4.22,4.15-11.04,0-15.19ZM192.64,264.57c-1.3-1.32-3.47-1.31-4.78,0s-1.3,3.47,0,4.78c1.34,1.34,3.48,1.3,4.78,0,1.32-1.3,1.32-3.47,0-4.78ZM236.66,183.44c-5.44-5.44-14.28-5.44-19.72,0-5.4,5.47-5.4,14.3.04,19.74,5.47,5.4,14.31,5.4,19.72-.07,5.44-5.43,5.43-14.28-.04-19.67ZM191.7,301.28c-1.17-1.17-3.05-1.14-4.2,0-1.17,1.17-1.17,3.07-.03,4.22,1.18,1.11,3.05,1.15,4.22-.02,1.15-1.15,1.15-3.05,0-4.2ZM236.42,221.49c-4.75-4.75-12.41-4.68-17.13.04-4.72,4.71-4.72,12.37.04,17.06,4.75,4.75,12.37,4.72,17.09,0,4.72-4.72,4.71-12.38,0-17.09ZM343,297.96c-2.71-2.64-7.04-2.65-9.73.04-2.65,2.66-2.61,7.01.05,9.67,2.68,2.68,7,2.68,9.69,0s2.69-7.01,0-9.7ZM346.24,257.97c-4.72-4.71-12.36-4.68-17.03.01-4.72,4.72-4.68,12.35.03,17.07,4.72,4.71,12.36,4.68,17.04,0,4.71-4.72,4.67-12.35-.04-17.07ZM340.5,329.8c-1.25-1.25-3.28-1.25-4.52,0-1.27,1.28-1.28,3.31-.03,4.56,1.24,1.24,3.28,1.24,4.55-.03,1.24-1.24,1.24-3.28,0-4.52ZM376.93,265.07c-1.25-1.25-3.27-1.25-4.52,0s-1.28,3.31-.03,4.55c1.25,1.25,3.28,1.24,4.55-.03s1.24-3.28,0-4.52ZM305.92,365.84c-2.1-2.1-5.53-2.07-7.64.03-2.1,2.1-2.13,5.53.03,7.64,2.1,2.09,5.51,2.08,7.6-.01,2.13-2.13,2.12-5.53,0-7.66ZM380.95,149.92c-3.57-3.57-9.4-3.57-13,.03-3.57,3.57-3.56,9.4.04,13.01,3.6,3.6,9.4,3.56,13.01-.04,3.56-3.57,3.56-9.4-.05-13ZM379.03,188.73c-2.49-2.49-6.51-2.46-9,.03-2.49,2.49-2.48,6.55,0,9.04,2.48,2.48,6.55,2.48,9.01-.04,2.48-2.49,2.52-6.52-.01-9.04ZM377.7,226.36c-1.71-1.71-4.52-1.7-6.22,0-1.73,1.75-1.73,4.56,0,6.29,1.71,1.69,4.52,1.7,6.26-.04,1.7-1.7,1.69-4.52-.04-6.25ZM268.36,372.13c-2.69-2.69-7.08-2.68-9.79.03-2.69,2.69-2.68,7.08.03,9.79,2.69,2.69,7.08,2.69,9.79-.03,2.68-2.68,2.68-7.08-.03-9.79ZM275.11,256.16c-6.13-6.06-16.06-6.09-22.14.07-6.12,6.12-6.12,16.02.01,22.14,6.16,6.09,16.04,6.09,22.17-.04,6.12-6.13,6.09-16.05-.03-22.17ZM274.76,293.92c-5.67-5.66-14.81-5.63-20.44,0-5.67,5.67-5.63,14.8.04,20.47,5.64,5.62,14.8,5.63,20.47-.04,5.6-5.66,5.6-14.84-.07-20.44ZM275.87,218.83c-6.48-6.43-16.96-6.42-23.38.07-6.45,6.45-6.41,16.9.04,23.35,6.46,6.44,16.9,6.41,23.36-.05,6.44-6.45,6.44-16.93-.02-23.37ZM229.96,335.98c-2.16-2.1-5.56-2.1-7.66,0-2.12,2.13-2.12,5.53,0,7.66,2.13,2.07,5.54,2.06,7.63-.03,2.13-2.13,2.13-5.54.03-7.64ZM309.86,297.58c-3.86-3.86-10.15-3.86-13.98.04-3.87,3.86-3.86,10.09,0,13.95,3.86,3.86,10.12,3.83,13.99-.03,3.86-3.87,3.82-10.13-.01-13.96ZM307.78,333.02c-2.68-2.68-7.07-2.69-9.75,0-2.72,2.71-2.69,7.07.03,9.79,2.68,2.68,7.07,2.68,9.75,0,2.72-2.72,2.72-7.1-.03-9.79ZM310.67,257.92c-5.4-5.4-14.08-5.37-19.45.01-5.37,5.37-5.37,14.08,0,19.45,5.38,5.37,14.09,5.37,19.46,0,5.41-5.41,5.37-14.08,0-19.46ZM272.08,332.24c-4.75-4.75-12.41-4.74-17.16,0-4.72,4.78-4.71,12.45.03,17.19,4.75,4.75,12.45,4.72,17.19-.03,4.68-4.75,4.71-12.45-.07-17.16ZM233.26,298.16c-3.48-3.47-9.08-3.43-12.51,0-3.47,3.47-3.47,9.11,0,12.51,3.48,3.47,9.08,3.5,12.55.03,3.44-3.51,3.43-9.08-.03-12.55ZM381.18,112.62c-3.74-3.73-9.79-3.76-13.53-.02-3.7,3.77-3.73,9.82,0,13.56,3.77,3.69,9.83,3.73,13.53-.04,3.73-3.74,3.73-9.76,0-13.5ZM349.55,181.54c-6.35-6.36-16.67-6.32-23.02.03-6.35,6.36-6.31,16.67.07,23,6.36,6.35,16.64,6.35,22.96-.05,6.35-6.35,6.35-16.64-.01-22.98ZM348.93,72.35c-5.93-5.93-15.53-5.88-21.45.03-5.9,5.9-5.9,15.53.07,21.42,5.9,5.9,15.52,5.9,21.39-.04,5.92-5.92,5.92-15.49-.01-21.41ZM347.83,220.61c-5.38-5.37-14.08-5.37-19.46,0-5.37,5.44-5.33,14.12.04,19.49,5.37,5.37,14.08,5.37,19.44,0,5.34-5.41,5.34-14.12-.03-19.49ZM377.75,43.25c-1.9-1.9-4.99-1.89-6.91.03-1.9,1.91-1.9,4.98.03,6.91,1.9,1.9,4.98,1.9,6.91-.03,1.9-1.9,1.9-4.97-.03-6.91ZM379.85,77.51c-3.04-3.04-7.95-2.97-10.97.04-3.04,3.04-3.04,7.96.01,10.94,3.04,3.03,7.96,3.04,10.96.03,3.05-3.05,3.04-7.97,0-11.01ZM156.34,191.41c-1.33-1.34-3.47-1.31-4.78,0s-1.34,3.43-.03,4.75c1.34,1.34,3.47,1.31,4.78,0,1.3-1.32,1.34-3.43.03-4.75ZM124,149.41c-4.15-4.15-10.97-4.15-15.19,0-4.2,4.19-4.2,11.01,0,15.2,4.2,4.2,11,4.2,15.2,0,4.19-4.19,4.16-10.97,0-15.2ZM119.4,191.34c-1.3-1.32-3.47-1.32-4.78,0-1.3,1.3-1.35,3.44,0,4.78,1.3,1.3,3.44,1.34,4.78,0,1.32-1.32,1.32-3.48,0-4.78ZM200.53,147.31c-5.39-5.47-14.24-5.48-19.67-.04-5.47,5.4-5.48,14.24-.07,19.72,5.43,5.44,14.27,5.44,19.74.04,5.44-5.43,5.45-14.27,0-19.72ZM82.69,192.27c-1.15-1.15-3.05-1.15-4.2,0-1.17,1.17-1.14,3.04-.02,4.22,1.15,1.15,3.04,1.15,4.22-.03,1.15-1.15,1.18-3.02,0-4.2ZM162.48,147.56c-4.72-4.72-12.38-4.72-17.09,0-4.72,4.72-4.76,12.35,0,17.09,4.69,4.76,12.35,4.76,17.06.04,4.72-4.72,4.79-12.38.04-17.13ZM86.01,40.97c-2.69-2.69-7.05-2.65-9.7,0-2.68,2.68-2.69,7,0,9.69,2.65,2.65,7.01,2.69,9.67.05,2.69-2.69,2.68-7.02.04-9.73ZM126,37.73c-4.72-4.71-12.35-4.75-17.07-.04-4.68,4.68-4.72,12.32,0,17.04,4.72,4.71,12.35,4.76,17.07.03,4.69-4.68,4.72-12.31.01-17.03ZM54.17,43.48c-1.24-1.24-3.28-1.24-4.52,0s-1.28,3.31-.03,4.55c1.25,1.25,3.28,1.24,4.56-.03,1.24-1.24,1.24-3.28,0-4.52ZM118.9,7.04c-1.24-1.24-3.27-1.25-4.52,0-1.28,1.28-1.28,3.3-.03,4.55s3.28,1.24,4.55-.03c1.25-1.25,1.25-3.27,0-4.52ZM18.14,78.06c-2.12-2.12-5.53-2.13-7.66,0-2.1,2.1-2.1,5.5-.01,7.6,2.11,2.16,5.54,2.13,7.64.03s2.13-5.53.03-7.64ZM234.05,3.02c-3.6-3.61-9.43-3.61-13-.05-3.6,3.61-3.64,9.4-.04,13.01,3.6,3.6,9.44,3.61,13.01.04,3.6-3.6,3.6-9.43.03-13ZM195.24,4.94c-2.52-2.53-6.55-2.49-9.04-.01-2.52,2.46-2.52,6.52-.04,9.01,2.49,2.49,6.55,2.5,9.04,0,2.49-2.49,2.52-6.51.03-9ZM157.61,6.27c-1.73-1.73-4.55-1.74-6.25-.04s-1.73,4.56-.04,6.26c1.73,1.73,4.55,1.73,6.29,0,1.7-1.7,1.71-4.52,0-6.22ZM11.84,115.62c-2.72-2.72-7.11-2.72-9.79-.03-2.73,2.72-2.72,7.1-.03,9.79,2.71,2.71,7.1,2.72,9.79.03,2.72-2.72,2.72-7.1.03-9.79ZM127.81,108.87c-6.12-6.12-16.04-6.15-22.17-.03-6.13,6.13-6.13,16.01-.04,22.17,6.12,6.13,16.02,6.13,22.14.01,6.16-6.08,6.13-16.02.07-22.14ZM90.05,109.22c-5.6-5.67-14.77-5.67-20.44-.07-5.67,5.67-5.66,14.84-.04,20.47,5.67,5.67,14.8,5.71,20.47.04,5.64-5.62,5.66-14.77,0-20.44ZM165.14,108.1c-6.45-6.46-16.92-6.46-23.37-.02-6.45,6.45-6.49,16.9-.05,23.36,6.45,6.45,16.9,6.49,23.35.04,6.49-6.42,6.49-16.9.07-23.38ZM47.99,154.01c-2.1-2.1-5.51-2.11-7.64.03-2.09,2.09-2.1,5.49-.03,7.63,2.13,2.13,5.53,2.13,7.66,0,2.1-2.1,2.1-5.5,0-7.66ZM86.39,74.11c-3.83-3.83-10.09-3.87-13.96-.01-3.86,3.87-3.89,10.13-.03,13.99,3.86,3.86,10.09,3.87,13.95,0,3.9-3.83,3.9-10.11.04-13.98ZM50.95,76.2c-2.69-2.76-7.07-2.76-9.79-.03-2.68,2.68-2.69,7.07,0,9.75,2.72,2.72,7.08,2.76,9.79.03,2.69-2.68,2.69-7.07,0-9.75ZM126.05,73.31c-5.38-5.38-14.05-5.42-19.46,0-5.38,5.37-5.37,14.08,0,19.46,5.37,5.37,14.08,5.37,19.45,0,5.38-5.37,5.41-14.05.01-19.45ZM51.73,111.89c-4.71-4.78-12.41-4.75-17.16-.07-4.76,4.74-4.78,12.44-.03,17.19,4.74,4.74,12.41,4.75,17.19.03,4.74-4.74,4.75-12.41,0-17.16ZM85.81,150.71c-3.47-3.47-9.04-3.47-12.55-.03-3.46,3.47-3.43,9.07.03,12.55,3.41,3.47,9.04,3.47,12.51,0,3.43-3.43,3.47-9.04,0-12.51ZM271.36,2.8c-3.73-3.73-9.76-3.73-13.5,0-3.77,3.7-3.73,9.75-.04,13.53,3.74,3.74,9.79,3.7,13.56,0,3.74-3.74,3.7-9.79-.02-13.53ZM202.43,34.42c-6.35-6.36-16.63-6.36-22.98-.01-6.39,6.33-6.39,16.6-.05,22.96,6.33,6.38,16.64,6.42,23,.07,6.35-6.35,6.39-16.67.03-23.02ZM311.63,35.04c-5.92-5.94-15.49-5.94-21.42-.01-5.94,5.87-5.94,15.49-.04,21.39,5.89,5.97,15.52,5.97,21.42.07,5.92-5.92,5.96-15.52.03-21.45ZM164.34,35.17c-5.91-5.91-15.48-5.91-21.44-.03-5.91,5.9-5.91,15.48,0,21.39,5.91,5.91,15.45,5.95,21.44.04,5.91-5.91,5.91-15.48,0-21.4ZM340.72,6.23c-1.94-1.93-5.01-1.93-6.91-.03-1.93,1.93-1.93,5.01-.03,6.91,1.93,1.93,5,1.93,6.91.03,1.93-1.93,1.93-5.01.03-6.91ZM306.47,4.12c-3.04-3.04-7.96-3.05-11.01,0-3.02,3-3,7.92.03,10.96,2.98,3.05,7.9,3.06,10.94.01,3.01-3.02,3.08-7.93.04-10.97ZM368.99,24.49c-2.69,2.7-6.97,2.77-9.76.25-2.52-2.78-2.45-7.07.25-9.76,2.71-2.71,6.98-2.79,9.76-.25,2.54,2.78,2.45,7.06-.25,9.76ZM346.41,55.54c-5.03,5.03-13.19,5.18-18.33.35-4.83-5.14-4.68-13.3.35-18.33,5.03-5.03,13.11-5.11,18.28-.3,4.81,5.17,4.73,13.25-.3,18.28ZM195.17,198.41c-2.72,2.72-7.04,2.79-9.82.21-2.58-2.78-2.51-7.1.21-9.82s7.03-2.78,9.82-.21c2.58,2.79,2.51,7.1-.21,9.82ZM313.16,218.02c-2.43-2.43-5.43-3.95-8.57-4.6,3.77-.76,7.36-2.59,10.3-5.49,7.94-7.95,7.97-20.81.02-28.76-1.61-1.61-3.44-2.87-5.39-3.81,2.22-.99,4.29-2.38,6.11-4.21,3.28-3.26,5.25-7.32,5.91-11.55.59,3.2,2.12,6.27,4.6,8.74,6.49,6.48,17.07,6.45,23.55-.03,6.52-6.52,6.48-17.09,0-23.58-6.52-6.51-17.11-6.48-23.58.01-2.42,2.45-3.93,5.44-4.55,8.59-.63-4.28-2.6-8.4-5.9-11.69-2.43-2.45-5.32-4.17-8.39-5.16,3.55-.73,6.92-2.47,9.68-5.23,2.21-2.24,3.77-4.9,4.66-7.73.67,2.96,2.15,5.77,4.46,8.08,6.55,6.48,17.09,6.48,23.57-.07,6.48-6.49,6.49-17.04-.03-23.55-6.52-6.52-17.1-6.48-23.55.03-1.78,1.79-3.07,3.88-3.87,6.1-.69-3.71-2.46-7.25-5.33-10.12-2.81-2.81-6.28-4.55-9.92-5.25,2.46-.88,4.76-2.3,6.73-4.26,6.82-6.9,7.08-17.78.77-24.94-7.16-6.31-18.04-6.05-24.94.77-1.97,1.97-3.38,4.26-4.26,6.73-.69-3.64-2.44-7.12-5.25-9.92-2.87-2.87-6.41-4.64-10.12-5.33,2.23-.8,4.31-2.09,6.1-3.87,6.52-6.45,6.55-17.03.03-23.55-6.51-6.52-17.06-6.52-23.55-.03-6.55,6.48-6.55,17.02-.07,23.57,2.31,2.31,5.12,3.79,8.08,4.46-2.83.9-5.48,2.46-7.73,4.66-2.76,2.76-4.5,6.13-5.23,9.68-.99-3.07-2.71-5.96-5.16-8.39-3.29-3.29-7.41-5.26-11.69-5.9,3.15-.62,6.14-2.12,8.59-4.55,6.49-6.48,6.52-17.06.01-23.58-6.49-6.48-17.07-6.52-23.58,0-6.48,6.48-6.52,17.06-.03,23.55,2.47,2.47,5.54,4,8.74,4.6-4.23.66-8.3,2.63-11.55,5.91-1.83,1.82-3.22,3.89-4.21,6.11-.94-1.95-2.2-3.78-3.81-5.39-7.95-7.95-20.81-7.92-28.76.02-2.9,2.94-4.73,6.53-5.49,10.3-.64-3.14-2.16-6.14-4.6-8.57-6.61-6.62-17.37-6.62-24.02-.04-6.62,6.62-6.63,17.37-.04,24.03,6.65,6.65,17.39,6.65,24.02.04,2.31-2.31,3.81-5.14,4.51-8.11.67,4.04,2.56,7.93,5.69,11.06,2.67,2.67,5.89,4.43,9.31,5.3-2.72.79-5.29,2.25-7.45,4.4-6.83,6.77-6.83,17.82-.03,24.62,6.77,6.84,17.82,6.84,24.63.04,2.67-2.67,4.28-5.98,4.86-9.43.61,4.02,2.46,7.89,5.55,10.98,2.87,2.87,6.4,4.66,10.11,5.38-3.32.74-6.46,2.39-9.03,4.96-7.22,7.15-7.3,18.79-.23,26.09,7.3,7.08,18.94,6.99,26.09-.23,2.58-2.58,4.22-5.72,4.96-9.03.72,3.71,2.51,7.25,5.38,10.11,3.09,3.09,6.96,4.94,10.98,5.55-3.45.58-6.77,2.19-9.43,4.86-6.81,6.81-6.81,17.86.04,24.63,6.8,6.8,17.86,6.8,24.62-.03,2.15-2.16,3.61-4.73,4.4-7.45.86,3.42,2.63,6.64,5.3,9.31,3.13,3.13,7.02,5.02,11.06,5.69-2.97.7-5.8,2.2-8.11,4.51-6.61,6.62-6.61,17.37.04,24.02,6.66,6.59,17.41,6.58,24.03-.04,6.58-6.65,6.58-17.41-.04-24.02ZM202.59,107.53c-2.12-2.12-4.64-3.58-7.32-4.38,3.49-.86,6.79-2.65,9.5-5.38,1.7-1.7,3.03-3.63,3.98-5.68.99,2.11,2.33,4.08,4.05,5.8,1.73,1.73,3.72,3.07,5.82,4.05-2.06.94-3.99,2.23-5.69,3.92-3.09,3.09-4.94,6.96-5.53,10.97-.59-3.4-2.19-6.67-4.82-9.3ZM241.96,107.15c-.37-.45-.76-.89-1.18-1.3-1.52-1.49-3.19-2.66-4.96-3.56,2.39-1.01,4.64-2.47,6.59-4.42,3.07-3.07,4.99-6.87,5.74-10.85.91,2.65,2.42,5.16,4.53,7.29.54.54,1.1,1.03,1.67,1.48-2.89,1.2-5.59,2.95-7.93,5.28-1.84,1.84-3.33,3.89-4.47,6.08ZM288.67,95.3c2.43,2.15,5.32,3.52,8.34,4.16-2.69.92-5.21,2.46-7.35,4.59-1.15,1.15-2.12,2.41-2.91,3.75-1.04-1.78-2.32-3.46-3.85-4.99-.29-.29-.58-.57-.89-.84-.27-.3-.55-.6-.84-.89-1.52-1.52-3.2-2.81-4.99-3.85,1.34-.8,2.6-1.76,3.75-2.91,2.13-2.14,3.67-4.66,4.59-7.35.63,3.02,2,5.9,4.16,8.34ZM240.1,143.87c-2.63-2.55-5.83-4.16-9.19-4.85,3.61-.76,7.05-2.55,9.85-5.38.74-.74,1.42-1.53,2.02-2.35.99,1.62,2.17,3.17,3.57,4.58.29.29.6.58.9.85.27.3.55.61.85.9,1.41,1.4,2.96,2.59,4.58,3.57-.82.6-1.62,1.28-2.35,2.02-2.82,2.8-4.61,6.24-5.38,9.85-.69-3.35-2.3-6.56-4.85-9.19ZM281.69,148.16c-.9-1.77-2.07-3.44-3.56-4.96-.42-.42-.85-.81-1.3-1.18,2.19-1.14,4.24-2.63,6.08-4.47,2.33-2.35,4.08-5.05,5.28-7.93.45.58.94,1.14,1.48,1.67,2.13,2.11,4.64,3.62,7.29,4.53-3.98.76-7.78,2.67-10.85,5.74-1.95,1.95-3.41,4.2-4.42,6.59ZM276.44,181.38c-2.63-2.63-5.9-4.23-9.3-4.82,4.01-.6,7.87-2.44,10.97-5.53,1.69-1.69,2.99-3.63,3.92-5.69.98,2.11,2.32,4.09,4.05,5.82,1.72,1.72,3.69,3.06,5.8,4.05-2.05.95-3.98,2.28-5.68,3.98-2.73,2.71-4.52,6.01-5.38,9.5-.8-2.68-2.26-5.2-4.38-7.32Z"/>
    </g>
    <g id="text">
      <path class="cls-2" d="M448.6,277.53h-8.66v-60.6h42.76v7.53h-34.11v53.07ZM447.73,245.59h31.25v7.44h-31.25v-7.44Z"/>
      <path class="cls-2" d="M511.79,278.05c-4.91,0-9.22-1.01-12.94-3.03-3.72-2.02-6.61-4.79-8.66-8.31-2.05-3.52-3.07-7.56-3.07-12.12s1-8.6,2.99-12.12c1.99-3.52,4.73-6.28,8.22-8.27,3.49-1.99,7.43-2.99,11.82-2.99s8.37.98,11.77,2.94c3.4,1.96,6.07,4.72,8.01,8.27,1.93,3.55,2.9,7.69,2.9,12.42,0,.35-.01.75-.04,1.21-.03.46-.07.9-.13,1.3h-39.04v-5.97h34.71l-3.38,2.08c.06-2.94-.55-5.57-1.82-7.88-1.27-2.31-3.02-4.11-5.24-5.41-2.22-1.3-4.8-1.95-7.75-1.95s-5.45.65-7.7,1.95c-2.25,1.3-4.01,3.12-5.28,5.45-1.27,2.34-1.9,5.01-1.9,8.01v1.39c0,3.06.71,5.79,2.12,8.18,1.41,2.4,3.39,4.26,5.93,5.58,2.54,1.33,5.45,1.99,8.74,1.99,2.71,0,5.18-.46,7.4-1.38,2.22-.92,4.17-2.31,5.84-4.15l4.59,5.37c-2.08,2.42-4.66,4.27-7.75,5.54-3.09,1.27-6.54,1.9-10.35,1.9Z"/>
      <path class="cls-2" d="M543.47,277.53v-64.23h8.31v64.23h-8.31Z"/>
      <path class="cls-2" d="M566.76,277.53v-64.23h8.31v64.23h-8.31Z"/>
      <path class="cls-2" d="M609.7,278.05c-4.62,0-8.71-1.01-12.29-3.03-3.58-2.02-6.41-4.8-8.48-8.35-2.08-3.55-3.12-7.58-3.12-12.08s1.04-8.6,3.12-12.12c2.08-3.52,4.9-6.28,8.48-8.27,3.58-1.99,7.67-2.99,12.29-2.99s8.64,1,12.25,2.99c3.61,1.99,6.43,4.73,8.48,8.22,2.05,3.49,3.07,7.55,3.07,12.16s-1.03,8.6-3.07,12.12c-2.05,3.52-4.88,6.29-8.48,8.31-3.61,2.02-7.69,3.03-12.25,3.03ZM609.7,270.78c2.94,0,5.58-.66,7.92-1.99,2.34-1.33,4.17-3.22,5.5-5.67,1.33-2.45,1.99-5.29,1.99-8.53s-.66-6.13-1.99-8.53c-1.33-2.39-3.16-4.26-5.5-5.58-2.34-1.33-4.98-1.99-7.92-1.99s-5.57.67-7.88,1.99c-2.31,1.33-4.16,3.19-5.54,5.58-1.39,2.4-2.08,5.24-2.08,8.53s.69,6.07,2.08,8.53c1.38,2.45,3.23,4.34,5.54,5.67,2.31,1.33,4.93,1.99,7.88,1.99Z"/>
      <path class="cls-2" d="M652.55,277.53l-17.05-45.88h7.88l15.15,41.55h-3.72l15.76-41.55h7.01l15.41,41.55h-3.64l15.5-41.55h7.44l-17.14,45.88h-7.96l-14.46-37.92h2.42l-14.63,37.92h-7.96Z"/>
      <path class="cls-2" d="M734.1,278.05c-3.81,0-7.43-.52-10.86-1.56-3.43-1.04-6.13-2.31-8.09-3.81l3.46-6.58c1.96,1.33,4.38,2.45,7.27,3.38,2.89.92,5.83,1.39,8.83,1.39,3.87,0,6.65-.55,8.35-1.65,1.7-1.1,2.55-2.63,2.55-4.59,0-1.44-.52-2.57-1.56-3.38-1.04-.81-2.41-1.41-4.11-1.82-1.7-.4-3.59-.76-5.67-1.08-2.08-.32-4.15-.72-6.23-1.21-2.08-.49-3.98-1.18-5.71-2.08s-3.12-2.13-4.16-3.72c-1.04-1.59-1.56-3.71-1.56-6.36s.78-5.19,2.34-7.27,3.77-3.68,6.62-4.8c2.86-1.13,6.25-1.69,10.17-1.69,3,0,6.05.36,9.13,1.08,3.09.72,5.61,1.75,7.57,3.07l-3.55,6.58c-2.08-1.38-4.24-2.34-6.49-2.86-2.25-.52-4.5-.78-6.75-.78-3.64,0-6.35.59-8.14,1.77-1.79,1.18-2.68,2.7-2.68,4.54,0,1.56.53,2.76,1.6,3.59,1.07.84,2.45,1.49,4.16,1.95,1.7.46,3.59.85,5.67,1.17,2.08.32,4.16.72,6.23,1.21,2.08.49,3.97,1.17,5.67,2.03,1.7.86,3.09,2.08,4.16,3.64,1.07,1.56,1.6,3.64,1.6,6.23,0,2.77-.81,5.17-2.42,7.19-1.62,2.02-3.9,3.59-6.84,4.72s-6.46,1.69-10.56,1.69Z"/>
      <path class="cls-2" d="M787.94,231.22c3.75,0,7.06.72,9.91,2.16,2.86,1.44,5.09,3.64,6.71,6.58,1.61,2.94,2.42,6.67,2.42,11.17v26.4h-8.31v-25.45c0-4.44-1.08-7.79-3.25-10.04-2.16-2.25-5.21-3.38-9.13-3.38-2.94,0-5.51.58-7.7,1.73-2.19,1.16-3.88,2.86-5.07,5.11s-1.77,5.05-1.77,8.4v23.63h-8.31v-64.23h8.31v30.73l-1.64-3.29c1.5-3,3.81-5.34,6.93-7.01,3.12-1.67,6.75-2.51,10.91-2.51Z"/>
      <path class="cls-2" d="M825.68,222.82c-1.62,0-2.96-.52-4.03-1.56-1.07-1.04-1.6-2.31-1.6-3.81s.53-2.86,1.6-3.9c1.07-1.04,2.41-1.56,4.03-1.56s2.96.51,4.03,1.52c1.07,1.01,1.6,2.27,1.6,3.77s-.52,2.87-1.56,3.94c-1.04,1.07-2.4,1.6-4.07,1.6ZM821.53,277.53v-45.88h8.31v45.88h-8.31Z"/>
      <path class="cls-2" d="M844.81,294.32v-62.68h7.96v12.38l-.52,10.65.87,10.65v29h-8.31ZM869.14,278.05c-3.81,0-7.29-.88-10.43-2.64s-5.66-4.37-7.53-7.83c-1.88-3.46-2.81-7.79-2.81-12.98s.91-9.52,2.73-12.99c1.82-3.46,4.3-6.06,7.44-7.79,3.15-1.73,6.68-2.6,10.6-2.6,4.5,0,8.48.98,11.95,2.94,3.46,1.96,6.2,4.69,8.22,8.18,2.02,3.49,3.03,7.58,3.03,12.25s-1.01,8.77-3.03,12.29c-2.02,3.52-4.76,6.26-8.22,8.22-3.46,1.96-7.44,2.94-11.95,2.94ZM868.45,270.78c2.94,0,5.58-.66,7.92-1.99,2.34-1.33,4.18-3.22,5.54-5.67,1.35-2.45,2.03-5.29,2.03-8.53s-.68-6.13-2.03-8.53c-1.36-2.39-3.2-4.26-5.54-5.58-2.34-1.33-4.98-1.99-7.92-1.99s-5.5.67-7.83,1.99c-2.34,1.33-4.19,3.19-5.54,5.58-1.36,2.4-2.03,5.24-2.03,8.53s.68,6.07,2.03,8.53c1.35,2.45,3.2,4.34,5.54,5.67,2.34,1.33,4.95,1.99,7.83,1.99Z"/>
      <path class="cls-2" d="M439.94,366.57v-60.6h23.63c5.31,0,9.84.84,13.59,2.51,3.75,1.67,6.64,4.1,8.66,7.27,2.02,3.18,3.03,6.96,3.03,11.34s-1.01,8.15-3.03,11.3c-2.02,3.15-4.91,5.57-8.66,7.27-3.75,1.7-8.28,2.55-13.59,2.55h-18.87l3.9-4.07v22.42h-8.66ZM448.6,345.02l-3.9-4.33h18.61c5.54,0,9.74-1.18,12.6-3.55,2.86-2.37,4.29-5.71,4.29-10.04s-1.43-7.68-4.29-10.04c-2.86-2.37-7.06-3.55-12.6-3.55h-18.61l3.9-4.33v35.84Z"/>
      <path class="cls-2" d="M498.72,366.57v-45.88h7.96v12.47l-.78-3.12c1.27-3.17,3.4-5.6,6.41-7.27,3-1.67,6.69-2.51,11.08-2.51v8.05c-.35-.06-.68-.09-1-.09h-.91c-4.44,0-7.96,1.33-10.56,3.98-2.6,2.66-3.9,6.49-3.9,11.51v22.85h-8.31Z"/>
      <path class="cls-2" d="M551.96,367.09c-4.62,0-8.71-1.01-12.29-3.03-3.58-2.02-6.41-4.8-8.48-8.35-2.08-3.55-3.12-7.58-3.12-12.08s1.04-8.6,3.12-12.12c2.08-3.52,4.9-6.28,8.48-8.27,3.58-1.99,7.67-2.99,12.29-2.99s8.64,1,12.25,2.99c3.61,1.99,6.43,4.73,8.48,8.22,2.05,3.49,3.07,7.55,3.07,12.16s-1.03,8.6-3.07,12.12c-2.05,3.52-4.88,6.29-8.48,8.31-3.61,2.02-7.69,3.03-12.25,3.03ZM551.96,359.82c2.94,0,5.58-.66,7.92-1.99,2.34-1.33,4.17-3.22,5.5-5.67,1.33-2.45,1.99-5.29,1.99-8.53s-.66-6.13-1.99-8.53c-1.33-2.39-3.16-4.26-5.5-5.58-2.34-1.33-4.98-1.99-7.92-1.99s-5.57.67-7.88,1.99c-2.31,1.33-4.16,3.19-5.54,5.58-1.39,2.4-2.08,5.24-2.08,8.53s.69,6.07,2.08,8.53c1.38,2.45,3.23,4.34,5.54,5.67,2.31,1.33,4.93,1.99,7.88,1.99Z"/>
      <path class="cls-2" d="M605.46,364.67c-4.44,0-8.41-.94-11.9-2.81-3.49-1.87-6.26-4.49-8.31-7.83-2.05-3.35-3.07-7.21-3.07-11.6s1.02-8.32,3.07-11.64c2.05-3.32,4.82-5.9,8.31-7.75,3.49-1.85,7.46-2.77,11.9-2.77,3.92,0,7.5.79,10.73,2.38,3.23,1.59,5.81,4.03,7.75,7.31,1.93,3.29,2.9,7.44,2.9,12.47s-.97,9.09-2.9,12.38c-1.93,3.29-4.52,5.76-7.75,7.4-3.23,1.64-6.81,2.47-10.73,2.47ZM606.49,383.89c-4.21,0-8.3-.59-12.25-1.77-3.95-1.18-7.17-2.87-9.65-5.07l3.98-6.41c2.13,1.85,4.76,3.3,7.88,4.37,3.12,1.07,6.38,1.6,9.78,1.6,5.42,0,9.41-1.27,11.95-3.81,2.54-2.54,3.81-6.41,3.81-11.6v-9.7l.87-9.09-.43-9.18v-12.55h7.88v39.65c0,8.08-2.02,14.02-6.06,17.83-4.04,3.81-9.96,5.71-17.75,5.71ZM606.41,357.39c3.06,0,5.77-.63,8.14-1.9,2.37-1.27,4.23-3.03,5.58-5.28,1.35-2.25,2.03-4.85,2.03-7.79s-.68-5.54-2.03-7.79c-1.36-2.25-3.22-4-5.58-5.24-2.37-1.24-5.08-1.86-8.14-1.86s-5.79.62-8.18,1.86c-2.4,1.24-4.27,2.99-5.63,5.24-1.36,2.25-2.03,4.85-2.03,7.79s.68,5.54,2.03,7.79c1.36,2.25,3.23,4.01,5.63,5.28,2.39,1.27,5.12,1.9,8.18,1.9Z"/>
      <path class="cls-2" d="M642.68,366.57v-45.88h7.96v12.47l-.78-3.12c1.27-3.17,3.4-5.6,6.41-7.27,3-1.67,6.69-2.51,11.08-2.51v8.05c-.35-.06-.68-.09-1-.09h-.91c-4.44,0-7.96,1.33-10.56,3.98-2.6,2.66-3.9,6.49-3.9,11.51v22.85h-8.31Z"/>
      <path class="cls-2" d="M689.34,367.09c-3.41,0-6.39-.58-8.96-1.73-2.57-1.15-4.54-2.76-5.93-4.81-1.39-2.05-2.08-4.37-2.08-6.97s.59-4.73,1.77-6.75c1.18-2.02,3.12-3.64,5.8-4.85,2.68-1.21,6.3-1.82,10.86-1.82h14.54v5.97h-14.2c-4.15,0-6.96.69-8.4,2.08-1.44,1.38-2.16,3.06-2.16,5.02,0,2.25.89,4.06,2.68,5.41,1.79,1.36,4.27,2.03,7.44,2.03s5.84-.69,8.18-2.08c2.34-1.38,4.03-3.4,5.06-6.06l1.64,5.71c-1.1,2.71-3.03,4.86-5.8,6.45-2.77,1.59-6.26,2.38-10.47,2.38ZM704.4,366.57v-9.7l-.43-1.82v-16.53c0-3.52-1.03-6.25-3.07-8.18-2.05-1.93-5.12-2.9-9.22-2.9-2.71,0-5.37.45-7.96,1.34-2.6.9-4.79,2.09-6.58,3.59l-3.46-6.23c2.37-1.9,5.21-3.36,8.53-4.37,3.32-1.01,6.8-1.52,10.43-1.52,6.29,0,11.14,1.53,14.54,4.59,3.4,3.06,5.11,7.73,5.11,14.02v27.7h-7.88Z"/>
      <path class="cls-2" d="M784.22,320.26c3.69,0,6.95.72,9.78,2.16,2.83,1.44,5.03,3.64,6.62,6.58,1.59,2.94,2.38,6.67,2.38,11.17v26.4h-8.31v-25.45c0-4.44-1.04-7.79-3.12-10.04-2.08-2.25-4.99-3.38-8.74-3.38-2.77,0-5.2.58-7.27,1.73-2.08,1.16-3.68,2.86-4.8,5.11s-1.69,5.05-1.69,8.4v23.63h-8.31v-25.45c0-4.44-1.03-7.79-3.07-10.04-2.05-2.25-4.98-3.38-8.79-3.38-2.71,0-5.11.58-7.19,1.73-2.08,1.16-3.69,2.86-4.85,5.11-1.15,2.25-1.73,5.05-1.73,8.4v23.63h-8.31v-45.88h7.96v12.21l-1.3-3.12c1.44-3,3.66-5.34,6.67-7.01,3-1.67,6.49-2.51,10.47-2.51,4.38,0,8.17,1.08,11.34,3.25,3.17,2.16,5.25,5.44,6.23,9.82l-3.38-1.38c1.38-3.52,3.81-6.35,7.27-8.48,3.46-2.13,7.5-3.2,12.12-3.2Z"/>
      <path class="cls-2" d="M872.26,320.26c3.69,0,6.95.72,9.78,2.16,2.83,1.44,5.03,3.64,6.62,6.58,1.59,2.94,2.38,6.67,2.38,11.17v26.4h-8.31v-25.45c0-4.44-1.04-7.79-3.12-10.04s-4.99-3.38-8.74-3.38c-2.77,0-5.19.58-7.27,1.73-2.08,1.16-3.68,2.86-4.8,5.11s-1.69,5.05-1.69,8.4v23.63h-8.31v-25.45c0-4.44-1.03-7.79-3.07-10.04s-4.98-3.38-8.79-3.38c-2.71,0-5.11.58-7.18,1.73-2.08,1.16-3.69,2.86-4.85,5.11-1.16,2.25-1.73,5.05-1.73,8.4v23.63h-8.31v-45.88h7.96v12.21l-1.3-3.12c1.44-3,3.66-5.34,6.67-7.01,3-1.67,6.49-2.51,10.47-2.51,4.39,0,8.17,1.08,11.34,3.25,3.17,2.16,5.25,5.44,6.23,9.82l-3.38-1.38c1.38-3.52,3.81-6.35,7.27-8.48,3.46-2.13,7.5-3.2,12.12-3.2Z"/>
      <path class="cls-2" d="M923.33,367.09c-4.91,0-9.22-1.01-12.94-3.03-3.72-2.02-6.61-4.79-8.66-8.31-2.05-3.52-3.07-7.56-3.07-12.12s1-8.6,2.99-12.12c1.99-3.52,4.73-6.28,8.22-8.27,3.49-1.99,7.43-2.99,11.82-2.99s8.37.98,11.77,2.94c3.4,1.96,6.07,4.72,8.01,8.27,1.93,3.55,2.9,7.69,2.9,12.42,0,.35-.01.75-.04,1.21-.03.46-.07.9-.13,1.3h-39.04v-5.97h34.71l-3.38,2.08c.06-2.94-.55-5.57-1.82-7.88-1.27-2.31-3.02-4.11-5.24-5.41-2.22-1.3-4.8-1.95-7.75-1.95s-5.45.65-7.7,1.95-4.01,3.12-5.28,5.45c-1.27,2.34-1.9,5.01-1.9,8.01v1.39c0,3.06.71,5.79,2.12,8.18,1.41,2.4,3.39,4.26,5.93,5.58,2.54,1.33,5.45,1.99,8.74,1.99,2.71,0,5.18-.46,7.4-1.38,2.22-.92,4.17-2.31,5.84-4.15l4.59,5.37c-2.08,2.42-4.66,4.27-7.75,5.54-3.09,1.27-6.54,1.9-10.35,1.9Z"/>
      <path class="cls-2" d="M435.34,184.49l27.44-60.6h8.57l27.53,60.6h-9.09l-24.5-55.75h3.46l-24.5,55.75h-8.92ZM447.02,169.34l2.34-6.93h34.11l2.51,6.93h-38.96Z"/>
      <path class="cls-2" d="M525.37,185.01c-4.67,0-8.84-1.01-12.51-3.03-3.67-2.02-6.54-4.79-8.61-8.31-2.08-3.52-3.12-7.56-3.12-12.12s1.04-8.6,3.12-12.12c2.08-3.52,4.95-6.28,8.61-8.27,3.66-1.99,7.83-2.99,12.51-2.99,4.16,0,7.86.82,11.12,2.47,3.26,1.65,5.78,4.08,7.57,7.32l-6.32,4.07c-1.5-2.25-3.33-3.91-5.5-4.98-2.16-1.07-4.49-1.6-6.97-1.6-3,0-5.69.66-8.05,1.99-2.37,1.33-4.24,3.19-5.63,5.58-1.39,2.4-2.08,5.24-2.08,8.53s.69,6.15,2.08,8.57c1.38,2.42,3.26,4.3,5.63,5.63,2.37,1.33,5.05,1.99,8.05,1.99,2.48,0,4.8-.53,6.97-1.6,2.16-1.07,4-2.73,5.5-4.98l6.32,3.98c-1.79,3.17-4.32,5.61-7.57,7.32-3.26,1.7-6.97,2.55-11.12,2.55Z"/>
      <path class="cls-2" d="M573.24,185.01c-4.67,0-8.84-1.01-12.51-3.03-3.67-2.02-6.54-4.79-8.61-8.31-2.08-3.52-3.12-7.56-3.12-12.12s1.04-8.6,3.12-12.12c2.08-3.52,4.95-6.28,8.61-8.27,3.66-1.99,7.83-2.99,12.51-2.99,4.16,0,7.86.82,11.12,2.47,3.26,1.65,5.78,4.08,7.57,7.32l-6.32,4.07c-1.5-2.25-3.33-3.91-5.5-4.98-2.16-1.07-4.49-1.6-6.97-1.6-3,0-5.69.66-8.05,1.99-2.37,1.33-4.24,3.19-5.63,5.58-1.39,2.4-2.08,5.24-2.08,8.53s.69,6.15,2.08,8.57c1.38,2.42,3.26,4.3,5.63,5.63,2.37,1.33,5.05,1.99,8.05,1.99,2.48,0,4.8-.53,6.97-1.6,2.16-1.07,4-2.73,5.5-4.98l6.32,3.98c-1.79,3.17-4.32,5.61-7.57,7.32-3.26,1.7-6.97,2.55-11.12,2.55Z"/>
      <path class="cls-2" d="M621.55,185.01c-4.91,0-9.22-1.01-12.94-3.03-3.72-2.02-6.61-4.79-8.66-8.31-2.05-3.52-3.07-7.56-3.07-12.12s1-8.6,2.99-12.12c1.99-3.52,4.73-6.28,8.22-8.27,3.49-1.99,7.43-2.99,11.82-2.99s8.37.98,11.77,2.94c3.4,1.96,6.07,4.72,8.01,8.27,1.93,3.55,2.9,7.69,2.9,12.42,0,.35-.01.75-.04,1.21-.03.46-.07.9-.13,1.3h-39.04v-5.97h34.71l-3.38,2.08c.06-2.94-.55-5.57-1.82-7.88-1.27-2.31-3.02-4.11-5.24-5.41-2.22-1.3-4.8-1.95-7.75-1.95s-5.45.65-7.7,1.95c-2.25,1.3-4.01,3.12-5.28,5.45-1.27,2.34-1.9,5.01-1.9,8.01v1.38c0,3.06.71,5.79,2.12,8.18,1.41,2.4,3.39,4.26,5.93,5.58,2.54,1.33,5.45,1.99,8.74,1.99,2.71,0,5.18-.46,7.4-1.38,2.22-.92,4.17-2.31,5.84-4.16l4.59,5.37c-2.08,2.42-4.66,4.27-7.75,5.54-3.09,1.27-6.54,1.9-10.35,1.9Z"/>
      <path class="cls-2" d="M653.23,184.49v-64.23h8.31v64.23h-8.31Z"/>
      <path class="cls-2" d="M696.08,185.01c-4.91,0-9.22-1.01-12.94-3.03-3.72-2.02-6.61-4.79-8.66-8.31-2.05-3.52-3.07-7.56-3.07-12.12s1-8.6,2.99-12.12c1.99-3.52,4.73-6.28,8.22-8.27,3.49-1.99,7.43-2.99,11.82-2.99s8.37.98,11.77,2.94c3.4,1.96,6.07,4.72,8.01,8.27,1.93,3.55,2.9,7.69,2.9,12.42,0,.35-.01.75-.04,1.21-.03.46-.07.9-.13,1.3h-39.04v-5.97h34.71l-3.38,2.08c.06-2.94-.55-5.57-1.82-7.88-1.27-2.31-3.02-4.11-5.24-5.41-2.22-1.3-4.8-1.95-7.75-1.95s-5.45.65-7.7,1.95c-2.25,1.3-4.01,3.12-5.28,5.45-1.27,2.34-1.9,5.01-1.9,8.01v1.38c0,3.06.71,5.79,2.12,8.18,1.41,2.4,3.39,4.26,5.93,5.58,2.54,1.33,5.45,1.99,8.74,1.99,2.71,0,5.18-.46,7.4-1.38,2.22-.92,4.17-2.31,5.84-4.16l4.59,5.37c-2.08,2.42-4.66,4.27-7.75,5.54-3.09,1.27-6.54,1.9-10.35,1.9Z"/>
      <path class="cls-2" d="M727.76,184.49v-45.88h7.96v12.47l-.78-3.12c1.27-3.17,3.4-5.6,6.41-7.27,3-1.67,6.69-2.51,11.08-2.51v8.05c-.35-.06-.68-.09-1-.09h-.91c-4.44,0-7.96,1.33-10.56,3.98-2.6,2.66-3.9,6.49-3.9,11.51v22.85h-8.31Z"/>
      <path class="cls-2" d="M774.42,185.01c-3.41,0-6.39-.58-8.96-1.73-2.57-1.15-4.54-2.75-5.93-4.8-1.39-2.05-2.08-4.37-2.08-6.97s.59-4.73,1.77-6.75c1.18-2.02,3.12-3.64,5.8-4.85,2.68-1.21,6.3-1.82,10.86-1.82h14.54v5.97h-14.2c-4.16,0-6.96.69-8.4,2.08-1.44,1.38-2.16,3.06-2.16,5.02,0,2.25.89,4.06,2.68,5.41,1.79,1.36,4.27,2.03,7.44,2.03s5.84-.69,8.18-2.08c2.34-1.39,4.03-3.4,5.07-6.06l1.65,5.71c-1.1,2.71-3.03,4.86-5.8,6.45-2.77,1.59-6.26,2.38-10.47,2.38ZM789.49,184.49v-9.7l-.43-1.82v-16.53c0-3.52-1.03-6.25-3.07-8.18-2.05-1.93-5.12-2.9-9.22-2.9-2.71,0-5.37.45-7.96,1.34-2.6.9-4.79,2.09-6.58,3.59l-3.46-6.23c2.37-1.9,5.21-3.36,8.53-4.37,3.32-1.01,6.8-1.51,10.43-1.51,6.29,0,11.14,1.53,14.54,4.59,3.41,3.06,5.11,7.73,5.11,14.02v27.7h-7.88Z"/>
      <path class="cls-2" d="M805.33,145.45v-6.84h29.26v6.84h-29.26ZM827.66,185.01c-4.62,0-8.19-1.24-10.73-3.72-2.54-2.48-3.81-6.03-3.81-10.65v-42.07h8.31v41.73c0,2.48.62,4.39,1.86,5.71,1.24,1.33,3.02,1.99,5.32,1.99,2.6,0,4.76-.72,6.49-2.16l2.6,5.97c-1.27,1.1-2.79,1.9-4.54,2.42-1.76.52-3.59.78-5.5.78Z"/>
      <path class="cls-2" d="M864.97,185.01c-4.62,0-8.72-1.01-12.29-3.03-3.58-2.02-6.41-4.8-8.48-8.35-2.08-3.55-3.12-7.57-3.12-12.08s1.04-8.6,3.12-12.12c2.08-3.52,4.9-6.28,8.48-8.27s7.68-2.99,12.29-2.99,8.64,1,12.25,2.99c3.61,1.99,6.43,4.73,8.48,8.22,2.05,3.49,3.07,7.55,3.07,12.16s-1.03,8.6-3.07,12.12c-2.05,3.52-4.88,6.29-8.48,8.31-3.61,2.02-7.69,3.03-12.25,3.03ZM864.97,177.74c2.94,0,5.58-.66,7.92-1.99,2.34-1.33,4.17-3.22,5.5-5.67,1.33-2.45,1.99-5.29,1.99-8.53s-.66-6.13-1.99-8.53c-1.33-2.39-3.16-4.26-5.5-5.58-2.34-1.33-4.98-1.99-7.92-1.99s-5.57.66-7.88,1.99c-2.31,1.33-4.16,3.19-5.54,5.58-1.38,2.4-2.08,5.24-2.08,8.53s.69,6.08,2.08,8.53c1.38,2.45,3.23,4.34,5.54,5.67,2.31,1.33,4.93,1.99,7.88,1.99Z"/>
      <path class="cls-2" d="M899.43,184.49v-45.88h7.96v12.47l-.78-3.12c1.27-3.17,3.4-5.6,6.41-7.27,3-1.67,6.69-2.51,11.08-2.51v8.05c-.35-.06-.68-.09-1-.09h-.91c-4.44,0-7.96,1.33-10.56,3.98-2.6,2.66-3.9,6.49-3.9,11.51v22.85h-8.31Z"/>
    </g>
  </g>
</svg>